<svg width="190" enable-background="new 0 0 254.3 44" viewBox="0 0 254.3 44" xmlns="http://www.w3.org/2000/svg" xmlns:xlink="http://www.w3.org/1999/xlink" class="svg--logo" data-v-219e93fd=""><mask id="f" height="5.7" maskUnits="userSpaceOnUse" width="15.2" x="0" y=".4" data-v-219e93fd=""><path clip-rule="evenodd" d="m-.1.4h15.3v5.7h-15.3z" fill="#fff" fill-rule="evenodd" data-v-219e93fd=""/></mask><mask id="g" height="23.1" maskUnits="userSpaceOnUse" width="19.1" x=".2" y=".2" data-v-219e93fd=""><path clip-rule="evenodd" d="m.2.2h19.1v23.1h-19.1z" fill="#fff" fill-rule="evenodd" data-v-219e93fd=""/></mask><g clip-rule="evenodd" fill-rule="evenodd" data-v-219e93fd=""><path d="m12.4 6.1h-9.6c-1.6 0-2.8-1.3-2.8-2.9 0-1.5 1.3-2.8 2.8-2.8h9.6c1.6 0 2.9 1.3 2.9 2.9s-1.4 2.8-2.9 2.8z" fill="#f50" mask="url(#f)" transform="translate(0 13)" data-v-219e93fd=""/><path d="m43.9 33.5c0 1.6-1.3 2.8-2.8 2.8h-9.6c-1.6 0-2.8-1.3-2.8-2.8 0-1.6 1.3-2.8 2.8-2.8h9.6c1.5-.1 2.8 1.2 2.8 2.8zm-22.6-26.7c-.3.3-.1.8.4.8h21.1c1.4 0 2.8 1 3 2.4.3 1.6-.8 3-2.4 3.3-.2 0-.3 0-.5 0h-18.9c-1.4 0-2.8 1-3 2.4-.3 1.6.8 3 2.3 3.3h.5 9.4c1.4 0 2.8 1 3 2.4.3 1.6-.8 3-2.4 3.3-.2 0-.3 0-.5 0h-22c-1.4 0-2.8 1-3 2.4-.3 1.6.8 3 2.4 3.3h.5 8.6c1.5 0 2.9 1.1 3 2.6.1 1.2-.5 2.4-1.7 2.9-.2.1-.4.4-.2.6 0 0 0 .1.1.1 4 4.4 9.8 7.1 16.2 7.1 12.5 0 22.5-10.3 22-22.9-.4-11.1-9.9-20.4-21.3-20.8-6.5-.2-12.4 2.5-16.6 6.8z" fill="#f50" data-v-219e93fd=""/><g fill="#fff" data-v-219e93fd=""><path d="m106.4 29.4c.1-1.6.1-3.2 0-4.8-.3-3.1-2.5-5.2-5.7-5.2s-5.4 2.1-5.7 5.2c-.2 1.6-.2 3.2 0 4.8.3 3.1 2.5 5.2 5.7 5.2 3.3-.1 5.4-2.2 5.7-5.2m-15.7.5c-.2-1.6-.2-4.3 0-5.9.5-5.2 4.4-8.8 10-8.8s9.5 3.6 10 8.8c.2 1.6.2 4.3 0 5.9-.5 5.2-4.4 8.8-10 8.8s-9.5-3.6-10-8.8m25.4 6.4v-13.8c0-4.5 2.7-7.3 7.2-7.3 1.6 0 3 .2 4 .5.8.3 1.5.4 1.5 1 0 .3-.1.6-.4 1.7-.4 1.2-.5 1.6-1.1 1.6-.3 0-.7-.1-1.1-.2-.9-.2-1.7-.3-2.6-.3-2.2 0-3.3 1.1-3.3 3.3v13.6c0 2 0 2-2.1 2-2.1-.1-2.1-.1-2.1-2.1m61.1-.1c-.5-.4-.9-.7-.9-1s.2-.6.8-1.5c.7-.9.9-1.2 1.3-1.2s.6.3 1.1.6c1.5 1 3 1.8 5.8 1.8s4.1-1.3 4.1-3c0-1.3-.8-2.2-3.1-2.7l-3.3-.8c-3.5-.8-5.9-2.8-5.9-6.2 0-4.2 3.5-6.8 8.2-6.8 2.9 0 5.2.9 6.8 2.1.6.4.8.7.8 1 0 .4-.2.7-.8 1.6-.7.9-1 1.2-1.4 1.2-.3 0-.6-.3-1.1-.6-1.2-.9-2.7-1.3-4.2-1.4-2.6 0-4 1-4 2.8 0 1.2.8 2.1 3.1 2.6l3.1.7c4.3 1 6.2 3.1 6.2 6.4 0 4.4-3.5 7-8.4 7-3.6-.1-6.2-1-8.2-2.6m22.3.1v-18.6c0-2 0-2 2.1-2s2.1 0 2.1 2v18.6c0 2 0 2-2.1 2s-2.1 0-2.1-2m26.1-6.9c.1-1.5.1-3.2 0-4.8-.3-3.1-2.5-5.2-5.7-5.2s-5.4 2.1-5.7 5.2c-.2 1.6-.2 3.2 0 4.8.3 3.1 2.5 5.2 5.7 5.2 3.2-.1 5.4-2.2 5.7-5.2m-15.7.5c-.2-1.6-.2-4.3 0-5.9.5-5.2 4.4-8.8 10-8.8s9.5 3.6 10 8.8c.1 1.6.1 4.3 0 5.9-.5 5.2-4.4 8.8-10 8.8-5.7 0-9.5-3.6-10-8.8m-8.3-19.6c-1.5 0-2.7-1.1-2.7-2.6s1.1-2.7 2.6-2.7h.1c1.5 0 2.6 1.2 2.6 2.7s-1.1 2.6-2.6 2.6m-56.2-2.7c-1.3-.3-2.6-.5-3.9-.5-4.8 0-7.4 2.8-7.4 7.3v21.9c0 2 0 2 2.1 2s2.1 0 2.1-2v-16.1h6.3c2 0 2 0 2-2s0-2-2-2h-6.3v-1.5c0-2.4 1-3.7 3.3-3.7.6 0 1.4.1 2 .2.7.1 1.3.3 1.6.3.5 0 .7-.2 1.1-1.4.3-.8.3-1.2.3-1.5.1-.4 0-.7-1.2-1m-59 0c-1.3-.3-2.6-.5-3.9-.5-4.8 0-7.4 2.8-7.4 7.3v21.9c0 2 0 2 2.1 2 2.2 0 2.2 0 2.2-2v-16.1h6.3c2 0 2 0 2-2s0-2-2-2h-6.3v-1.5c0-2.4 1-3.7 3.3-3.7.6 0 1.4.1 2 .2.7.1 1.3.3 1.6.3.5 0 .7-.2 1.1-1.4.3-.8.3-1.2.3-1.5 0-.4-.1-.7-1.3-1m65.5 22.1v-12c0-2 0-2 2.1-2s2.1 0 2.1 2v11.6c0 3.5 1.8 5.3 5.2 5.3 2 0 4.1-.6 5.3-1.3v-15.6c0-2 0-2 2.1-2s2.1 0 2.1 2v16.2c0 1.6-.1 2.1-1.1 2.7-1.6.9-4.7 2.2-8.6 2.2-5.7-.1-9.2-3.5-9.2-9.1" data-v-219e93fd=""/><path d="m19.3 9.3v12c0 2 0 2-2.1 2-2.2 0-2.2 0-2.2-2v-11.6c0-3.5-1.8-5.3-5.2-5.3-2 0-4.1.6-5.3 1.3v15.5c0 2 0 2-2.1 2s-2.1 0-2.1-2v-16.1c0-1.6.1-2.1 1.1-2.7 1.6-.9 4.7-2.2 8.5-2.2 5.9 0 9.4 3.4 9.4 9.1" mask="url(#g)" transform="translate(235 15)" data-v-219e93fd=""/></g></g></svg>